<svg id="SvgjsSvg1001" width="288" height="288" xmlns="http://www.w3.org/2000/svg" version="1.1" xmlns:xlink="http://www.w3.org/1999/xlink" xmlns:svgjs="http://svgjs.com/svgjs"><defs id="SvgjsDefs1002"></defs><g id="SvgjsG1008"><svg xmlns="http://www.w3.org/2000/svg" viewBox="0 0 160.41 42.137" width="288" height="288"><g data-name="Grupo 1" fill="#ffffff" class="color000 svgShape"><path fill="#ffffff" d="M418.966,376.7H377.12V334.854h41.846Zm-38.234-3.613h34.621V338.466H380.732Z" data-name="Trazado 1" transform="translate(-377.12 -334.854)" class="colord10015 svgShape"></path></g><g data-name="Grupo 4" transform="translate(10.598 13.8)" fill="#ffffff" class="color000 svgShape"><g data-name="Grupo 2" fill="#ffffff" class="color000 svgShape"><path fill="#ffffff" d="M427.063,375.711l-2.694,9.122-2.1-9.122h-4.482l-2.062,9.122-1.22-3.771h-4.067l2.769,8.55h4.74l1.983-8.309,1.924,8.309h4.74l4.541-13.9Z" data-name="Trazado 2" transform="translate(-409.633 -375.531)" class="colord10015 svgShape"></path></g><g data-name="Grupo 3" fill="#ffffff" class="color000 svgShape"><circle cx="2.174" cy="2.174" r="2.174" fill="#ffffff" data-name="Elipse 1" class="color252f38 svgShape"></circle></g></g><g data-name="Grupo 1251" transform="translate(-45.904 -49.588)" fill="#ffffff" class="color000 svgShape"><g data-name="Grupo 969" fill="#ffffff" class="color000 svgShape"><path fill="#ffffff" d="M87.177,91.725H45.9V50.453H87.177ZM49.468,88.162H83.614V54.016H49.468Z" data-name="Trazado 348" class="colord10015 svgShape"></path></g><g data-name="Grupo 972" transform="translate(56.357 64.063)" fill="#ffffff" class="color000 svgShape"><g data-name="Grupo 970" fill="#ffffff" class="color000 svgShape"><path fill="#ffffff" d="M78.313,70.085l-2.657,9-2.073-9h-4.42l-2.034,9-1.2-3.719H61.914L64.644,83.8h4.675l1.956-8.2,1.9,8.2h4.674l4.479-13.711Z" data-name="Trazado 349" transform="translate(-61.123 -69.907)" class="colord10015 svgShape"></path></g><g data-name="Grupo 971" fill="#ffffff" class="color000 svgShape"><circle cx="2.144" cy="2.144" r="2.144" fill="#ffffff" data-name="Elipse 32" class="color252f38 svgShape"></circle></g></g><g data-name="Grupo 973" transform="translate(98.703 85.293)" fill="#ffffff" class="color000 svgShape"><path fill="#ffffff" d="M123.87,104.157a1.653,1.653,0,0,1-2.361.053c-.429-.43-.429-.876-.429-1.839s0-1.411.429-1.838a1.6,1.6,0,0,1,1.161-.473,1.749,1.749,0,0,1,1.36.62L123.7,101a1.332,1.332,0,0,0-1.032-.51,1.108,1.108,0,0,0-.787.327c-.287.294-.317.6-.317,1.55s.031,1.263.317,1.557a1.132,1.132,0,0,0,1.641-.07,1.208,1.208,0,0,0,.25-.829v-.34h-1.1v-.427h1.589v.721a1.569,1.569,0,0,1-.389,1.174Z" data-name="Trazado 350" transform="translate(-121.08 -100.06)" class="color252f38 svgShape"></path><path fill="#ffffff" d="M129.8,104.661l-1.034-2.018h-1.091v2.018h-.484v-4.544h1.741a1.228,1.228,0,0,1,1.347,1.261,1.178,1.178,0,0,1-.99,1.22l1.079,2.063Zm-.912-4.111h-1.213v1.666h1.213a.836.836,0,1,0,0-1.666Z" data-name="Trazado 351" transform="translate(-122.898 -100.077)" class="color252f38 svgShape"></path><path fill="#ffffff" d="M133.148,104.661v-4.544h2.821v.433h-2.336v1.6h1.991v.435h-1.991v1.641h2.336v.433Z" data-name="Trazado 352" transform="translate(-124.672 -100.077)" class="color252f38 svgShape"></path><path fill="#ffffff" d="M141,104.661l-.364-1.029h-1.985l-.364,1.029h-.516l1.672-4.544h.408l1.667,4.544Zm-1.347-3.849-.855,2.4h1.7l-.841-2.4Z" data-name="Trazado 353" transform="translate(-126.049 -100.077)" class="color252f38 svgShape"></path><path fill="#ffffff" d="M144.742,100.55v4.111h-.485V100.55h-1.315v-.433h3.115v.433Z" data-name="Trazado 354" transform="translate(-127.588 -100.077)" class="color252f38 svgShape"></path><path fill="#ffffff" d="M150.847,104.661v-4.544h.486v4.544Z" data-name="Trazado 355" transform="translate(-129.941 -100.077)" class="color252f38 svgShape"></path><path fill="#ffffff" d="M156.116,104.239a1.6,1.6,0,0,1-1.149.422H153.41v-4.544h1.557a1.6,1.6,0,0,1,1.149.419,2.406,2.406,0,0,1,.447,1.8,2.655,2.655,0,0,1-.447,1.9Zm-.338-3.357a1.185,1.185,0,0,0-.893-.331h-.99v3.677h.99a1.187,1.187,0,0,0,.893-.334,2.446,2.446,0,0,0,.3-1.556,2.146,2.146,0,0,0-.3-1.457Z" data-name="Trazado 356" transform="translate(-130.704 -100.077)" class="color252f38 svgShape"></path><path fill="#ffffff" d="M159.525,104.661v-4.544h2.821v.433h-2.336v1.6H162v.435h-1.992v1.641h2.336v.433Z" data-name="Trazado 357" transform="translate(-132.524 -100.077)" class="color252f38 svgShape"></path><path fill="#ffffff" d="M167.379,104.661l-.363-1.029H165.03l-.363,1.029h-.517l1.672-4.544h.409l1.666,4.544Zm-1.346-3.849-.855,2.4h1.7l-.842-2.4Z" data-name="Trazado 358" transform="translate(-133.901 -100.077)" class="color252f38 svgShape"></path><path fill="#ffffff" d="M171.533,104.681a1.979,1.979,0,0,1-1.557-.6l.33-.33a1.568,1.568,0,0,0,1.24.5c.662,0,1.071-.313,1.071-.843a.734.734,0,0,0-.216-.567.986.986,0,0,0-.593-.218l-.53-.082a1.661,1.661,0,0,1-.836-.346,1.066,1.066,0,0,1-.344-.848,1.285,1.285,0,0,1,1.455-1.284,1.834,1.834,0,0,1,1.353.5l-.313.313a1.434,1.434,0,0,0-1.059-.39.841.841,0,0,0-.958.843.657.657,0,0,0,.2.523,1.281,1.281,0,0,0,.612.249l.5.076a1.485,1.485,0,0,1,.83.319,1.143,1.143,0,0,1,.383.9c0,.8-.626,1.288-1.57,1.288Z" data-name="Trazado 359" transform="translate(-135.635 -100.06)" class="color252f38 svgShape"></path><path fill="#ffffff" d="M179.27,100.55v4.111h-.485V100.55h-1.315v-.433h3.114v.433Z" data-name="Trazado 360" transform="translate(-137.866 -100.077)" class="color252f38 svgShape"></path><path fill="#ffffff" d="M185.756,104.661v-2.075H183.6v2.075h-.485v-4.544h.485v2.035h2.157v-2.035h.485v4.544Z" data-name="Trazado 361" transform="translate(-139.546 -100.077)" class="color252f38 svgShape"></path><path fill="#ffffff" d="M191.841,104.661l-.363-1.029h-1.985l-.366,1.029h-.515l1.672-4.544h.408l1.666,4.544Zm-1.347-3.849-.855,2.4h1.7l-.841-2.4Z" data-name="Trazado 362" transform="translate(-141.182 -100.077)" class="color252f38 svgShape"></path><path fill="#ffffff" d="M195.582,100.55v4.111H195.1V100.55h-1.315v-.433H196.9v.433Z" data-name="Trazado 363" transform="translate(-142.721 -100.077)" class="color252f38 svgShape"></path><path fill="#ffffff" d="M204.981,104.661h-.454l-1.008-3.639-1.009,3.639h-.453l-1.162-4.544h.517l.887,3.661,1-3.661h.435l1,3.661.887-3.661h.517l-1.162,4.544Z" data-name="Trazado 364" transform="translate(-144.839 -100.077)" class="color252f38 svgShape"></path><path fill="#ffffff" d="M211.86,104.211a1.67,1.67,0,0,1-2.323,0c-.428-.43-.428-.876-.428-1.839s0-1.411.428-1.838a1.661,1.661,0,0,1,2.323,0c.428.427.428.874.428,1.838s0,1.41-.428,1.839Zm-.376-3.389a1.108,1.108,0,0,0-1.571,0c-.286.294-.317.6-.317,1.55s.031,1.256.317,1.55a1.11,1.11,0,0,0,1.571,0c.287-.294.319-.6.319-1.55s-.032-1.256-.319-1.55Z" data-name="Trazado 365" transform="translate(-147.284 -100.06)" class="color252f38 svgShape"></path><path fill="#ffffff" d="M217.872,104.661l-1.033-2.018h-1.091v2.018h-.485v-4.544h1.743a1.228,1.228,0,0,1,1.347,1.261,1.18,1.18,0,0,1-.99,1.22l1.078,2.063Zm-.912-4.111h-1.212v1.666h1.212a.836.836,0,1,0,0-1.666Z" data-name="Trazado 366" transform="translate(-149.115 -100.077)" class="color252f38 svgShape"></path><path fill="#ffffff" d="M224.049,104.661l-1.384-2.42-.957,1.149v1.271h-.486v-4.544h.486v2.609l2.119-2.609h.594l-1.431,1.754,1.635,2.79Z" data-name="Trazado 367" transform="translate(-150.89 -100.077)" class="color252f38 svgShape"></path></g><g data-name="Grupo 975" transform="translate(98.63 55.644)" fill="#ffffff" class="color000 svgShape"><path fill="#ffffff" d="M120.977,67.137h4.839V84.9h-4.839Z" data-name="Trazado 368" transform="translate(-120.977 -60.61)" class="color252f38 svgShape"></path><path fill="#ffffff" d="M188.612,67.137h4.839v2.738a6.036,6.036,0,0,1,5-2.738c3.661,0,5.794,2.42,5.794,6.335V84.9H199.4V75c0-2.292-1.082-3.47-2.929-3.47s-3.024,1.178-3.024,3.47v9.9h-4.839Z" data-name="Trazado 369" transform="translate(-141.11 -60.61)" class="color252f38 svgShape"></path><path fill="#ffffff" d="M243.182,69.607V65.424H238.79V61.381H233.9v4.043h-3.773v4.183H233.9v8.539c0,3.99,2.028,5.18,5.02,5.18a7.209,7.209,0,0,0,3.861-1V78.4a4.966,4.966,0,0,1-2.413.612c-1.094,0-1.577-.547-1.577-1.673V69.607Z" data-name="Trazado 370" transform="translate(-153.467 -58.897)" class="color252f38 svgShape"></path><path fill="#ffffff" d="M225.364,69.607V65.424H221.31V61.381h-4.892v4.043H213.44v4.183h2.978v8.539c0,3.99,2.028,5.18,5.02,5.18a7.209,7.209,0,0,0,3.862-1V78.4a4.966,4.966,0,0,1-2.413.612c-1.094,0-1.577-.547-1.577-1.673V69.607Z" data-name="Trazado 371" transform="translate(-148.501 -58.897)" class="color252f38 svgShape"></path><path fill="#ffffff" d="M263.007,67.137V80.771a15.6,15.6,0,0,1-2.9.237c-2.541,0-3.626-.971-3.626-3.246V67.137h-4.454v10.31c0,4.962,2.832,7.807,7.769,7.807a17.406,17.406,0,0,0,3.207-.287v.768c0,2.347-1.161,3.488-3.55,3.488a13.807,13.807,0,0,1-1.854-.129c-.361-.052-.659-.105-.943-.17a8.949,8.949,0,0,1-2.613-.965L254,87.934a1.55,1.55,0,0,0-.558-.11,2.164,2.164,0,0,0-1.861,1.453A2.1,2.1,0,0,0,252.764,92l.192.076a19.555,19.555,0,0,0,2.948,1.042,15.9,15.9,0,0,0,3.554.388,8.809,8.809,0,0,0,5.258-1.522,7.364,7.364,0,0,0,2.778-6.245v-18.6Z" data-name="Trazado 372" transform="translate(-159.81 -60.61)" class="color252f38 svgShape"></path><g data-name="Grupo 974" fill="#ffffff" class="color000 svgShape"><path fill="#ffffff" d="M150.029,57.844V82.1h-5V79.518a6.426,6.426,0,0,1-5.558,2.779c-5,0-8.3-3.629-8.3-9.055,0-5.362,3.269-8.924,8.172-8.924a6.62,6.62,0,0,1,5.689,2.778V57.844Zm-5,15.528c0-2.877-1.8-4.871-4.38-4.871-2.615,0-4.413,2.026-4.446,4.871.033,2.877,1.8,4.871,4.446,4.871C143.23,78.243,145.028,76.249,145.028,73.372Z" data-name="Trazado 373" transform="translate(-124.01 -57.844)" class="color252f38 svgShape"></path></g><path fill="#ffffff" d="M178.548,77.6H165.929a4.494,4.494,0,0,0,4.544,3.531,6.236,6.236,0,0,0,4.446-1.863l2.648,2.681a9.806,9.806,0,0,1-7.518,3.106c-5.623,0-9.186-3.6-9.186-8.924,0-5.427,3.694-9.023,9.056-9.023C176.1,67.107,178.973,71.193,178.548,77.6Zm-4.708-2.974a3.672,3.672,0,0,0-3.89-3.825c-2.223,0-3.727,1.5-4.119,3.825Z" data-name="Trazado 374" transform="translate(-132.85 -60.601)" class="color252f38 svgShape"></path></g></g></svg></g></svg>