<svg version="1.2" xmlns="http://www.w3.org/2000/svg" viewBox="0 0 118 43" width="118" height="43">
	<title>Hover_Boton-Home_Logo-Identty-svg</title>
	<style>
		.s0 { fill: #d10015 } 
		.s1 { fill: #252f38 } 
	</style>
	<g id="Grupo_1">
		<path id="Trazado_1" fill-rule="evenodd" class="s0" d="m-1.2 41.8h-41.8v-41.8h41.8zm-38.2-3.6h34.6v-34.6h-34.6z"/>
	</g>
	<g id="Grupo_4">
		<g id="Grupo_2">
			<path id="Trazado_2" class="s0" d="m-15 14l-2.7 9.1-2.1-9.1h-4.4l-2.1 9.1-1.2-3.8h-4.1l2.8 8.6h4.7l2-8.3 1.9 8.3h4.8l4.5-13.9z"/>
		</g>
		<g id="Grupo_3">
			<path id="Elipse_1" class="s1" d="m-30.2 18.1c-1.2 0-2.2-0.9-2.2-2.1 0-1.2 1-2.2 2.2-2.2 1.2 0 2.1 1 2.1 2.2 0 1.2-0.9 2.1-2.1 2.1z"/>
		</g>
	</g>
	<g id="Grupo_1251">
		<g id="Grupo_969">
			<path id="Trazado_348" fill-rule="evenodd" class="s0" d="m-1.7 42.1h-41.3v-41.2h41.3zm-37.7-3.6h34.1v-34.1h-34.1z"/>
		</g>
		<g id="Grupo_972">
			<g id="Grupo_970">
				<path id="Trazado_349" class="s0" d="m-15.4 14.7l-2.6 9-2.1-9h-4.4l-2 9-1.2-3.8h-4.1l2.8 8.5h4.6l2-8.2 1.9 8.2h4.7l4.5-13.7z"/>
			</g>
			<g id="Grupo_971">
				<path id="Elipse_32" class="s1" d="m-30.4 18.8c-1.2 0-2.1-1-2.1-2.2 0-1.2 0.9-2.1 2.1-2.1 1.2 0 2.1 0.9 2.1 2.1 0 1.2-0.9 2.2-2.1 2.2z"/>
			</g>
		</g>
		<g id="Grupo_973">
			<path id="Trazado_350" class="s1" d="m12.6 39.8q-0.2 0.2-0.5 0.4-0.3 0.1-0.7 0.1-0.3 0-0.6-0.1-0.3-0.1-0.6-0.3c-0.4-0.5-0.4-0.9-0.4-1.9 0-0.9 0-1.4 0.4-1.8q0.1-0.1 0.3-0.2 0.1-0.1 0.3-0.2 0.1 0 0.3-0.1 0.1 0 0.3 0 0.2 0 0.4 0 0.2 0.1 0.3 0.2 0.2 0 0.4 0.2 0.1 0.1 0.2 0.2l-0.3 0.3q-0.1-0.1-0.2-0.2-0.1-0.1-0.2-0.1-0.2-0.1-0.3-0.1-0.2-0.1-0.3-0.1-0.1 0-0.2 0.1-0.1 0-0.2 0-0.1 0.1-0.2 0.1-0.1 0.1-0.2 0.2c-0.3 0.3-0.3 0.6-0.3 1.5 0 1 0 1.3 0.3 1.6q0.2 0.1 0.4 0.2 0.2 0.1 0.4 0.1 0.3 0 0.5-0.1 0.2-0.1 0.3-0.3 0.1-0.1 0.2-0.2 0-0.1 0-0.2 0.1-0.1 0.1-0.2 0-0.1 0-0.2v-0.4h-1.1v-0.4h1.6v0.7q0 0.2 0 0.3 0 0.2-0.1 0.4 0 0.1-0.1 0.2-0.1 0.2-0.2 0.3z"/>
			<path id="Trazado_351" fill-rule="evenodd" class="s1" d="m16.7 40.3l-1-2h-1.1v2h-0.5v-4.6h1.7q0.3 0 0.5 0.1 0.3 0.1 0.5 0.3 0.2 0.2 0.3 0.4 0.1 0.2 0.1 0.5 0 0.2-0.1 0.4 0 0.2-0.2 0.4-0.1 0.2-0.3 0.3-0.2 0.1-0.4 0.1l1.1 2.1zm-0.9-4.1h-1.3v1.6h1.3q0.3 0.1 0.6-0.2 0.3-0.2 0.3-0.6 0-0.4-0.3-0.6-0.3-0.2-0.6-0.2z"/>
			<path id="Trazado_352" class="s1" d="m18.3 40.3v-4.6h2.8v0.5h-2.3v1.6h2v0.4h-2v1.7h2.3v0.4z"/>
			<path id="Trazado_353" fill-rule="evenodd" class="s1" d="m24.8 40.3l-0.4-1h-2l-0.4 1h-0.5l1.7-4.6h0.4l1.7 4.6zm-1.4-3.9l-0.8 2.4h1.7c0 0-0.9-2.4-0.9-2.4z"/>
			<path id="Trazado_354" class="s1" d="m27 36.2v4.1h-0.5v-4.1h-1.3v-0.5h3.1v0.5z"/>
			<path id="Trazado_355" class="s1" d="m30.7 40.3v-4.6h0.5v4.6z"/>
			<path id="Trazado_356" fill-rule="evenodd" class="s1" d="m35.2 39.9q-0.1 0.1-0.2 0.2-0.2 0-0.3 0.1-0.2 0-0.3 0.1-0.2 0-0.3 0h-1.6v-4.6h1.6q0.1 0 0.3 0.1 0.1 0 0.3 0 0.1 0.1 0.3 0.2 0.1 0.1 0.2 0.2 0.2 0.2 0.3 0.4 0.1 0.2 0.1 0.4 0.1 0.3 0.1 0.5 0 0.2 0 0.5 0 0.2 0 0.5 0 0.2-0.1 0.5 0 0.2-0.1 0.4-0.1 0.3-0.3 0.5zm-0.3-3.4q-0.1-0.1-0.2-0.1-0.1-0.1-0.2-0.1-0.2-0.1-0.3-0.1-0.1 0-0.2 0h-1v3.7h1q0.1 0 0.2-0.1 0.1 0 0.3 0 0.1-0.1 0.2-0.1 0.1-0.1 0.2-0.2 0.1-0.2 0.1-0.3 0.1-0.2 0.2-0.4 0-0.2 0-0.4 0-0.2 0-0.4 0-0.2 0-0.4 0-0.2 0-0.4-0.1-0.2-0.2-0.4 0-0.1-0.1-0.3z"/>
			<path id="Trazado_357" class="s1" d="m36.8 40.3v-4.6h2.8v0.5h-2.3v1.6h2v0.4h-2v1.7h2.3v0.4z"/>
			<path id="Trazado_358" fill-rule="evenodd" class="s1" d="m43.3 40.3l-0.4-1h-2l-0.3 1h-0.6l1.7-4.6h0.4l1.7 4.6zm-1.4-3.9l-0.8 2.4h1.7c0 0-0.8-2.4-0.9-2.4z"/>
			<path id="Trazado_359" class="s1" d="m45.7 40.3q-0.2 0-0.4 0-0.2 0-0.4-0.1-0.2-0.1-0.4-0.2-0.2-0.1-0.4-0.3l0.4-0.3q0.1 0.1 0.2 0.2 0.2 0.1 0.3 0.2 0.2 0 0.4 0.1 0.1 0 0.3 0c0.7 0 1.1-0.3 1.1-0.8q0-0.1 0-0.2 0-0.1-0.1-0.2 0 0 0-0.1-0.1-0.1-0.1-0.1-0.1-0.1-0.2-0.1 0 0-0.1-0.1-0.1 0-0.2 0 0 0-0.1 0l-0.6-0.1q-0.1 0-0.2-0.1-0.1 0-0.2 0-0.1-0.1-0.2-0.1-0.1-0.1-0.2-0.2-0.1 0-0.1-0.1-0.1-0.1-0.2-0.2 0-0.2 0-0.3 0-0.1 0-0.2 0-0.3 0.1-0.5 0.1-0.3 0.3-0.5 0.2-0.2 0.5-0.2 0.2-0.1 0.5-0.1 0.2 0 0.4 0 0.2 0.1 0.3 0.1 0.2 0.1 0.4 0.2 0.1 0.1 0.3 0.2l-0.3 0.3q-0.1-0.1-0.3-0.2-0.1 0-0.2-0.1-0.2 0-0.3-0.1-0.2 0-0.3 0-0.2 0-0.4 0.1-0.1 0-0.3 0.1-0.1 0.2-0.2 0.3-0.1 0.2-0.1 0.4 0 0 0 0.1 0.1 0.1 0.1 0.2 0 0 0 0.1 0.1 0 0.1 0.1 0.1 0 0.2 0.1 0.1 0 0.1 0.1 0.1 0 0.2 0 0.1 0 0.2 0l0.5 0.1q0.1 0 0.2 0.1 0.1 0 0.2 0 0.1 0.1 0.2 0.1 0.1 0.1 0.2 0.1 0.1 0.1 0.2 0.2 0 0.1 0.1 0.2 0 0.2 0 0.3 0.1 0.1 0.1 0.2c0 0.8-0.7 1.3-1.6 1.3z"/>
			<path id="Trazado_360" class="s1" d="m51.2 36.2v4.1h-0.5v-4.1h-1.3v-0.5h3.1v0.5z"/>
			<path id="Trazado_361" class="s1" d="m56 40.3v-2.1h-2.1v2.1h-0.5v-4.6h0.5v2.1h2.1v-2.1h0.5v4.6z"/>
			<path id="Trazado_362" fill-rule="evenodd" class="s1" d="m60.5 40.3l-0.4-1h-2l-0.4 1h-0.5l1.7-4.6h0.4l1.7 4.6zm-1.4-3.9l-0.8 2.4h1.7c0 0-0.9-2.4-0.9-2.4z"/>
			<path id="Trazado_363" class="s1" d="m62.7 36.2v4.1h-0.5v-4.1h-1.3v-0.5h3.1v0.5z"/>
			<path id="Trazado_364" class="s1" d="m69.9 40.3h-0.4l-1-3.6-1 3.6h-0.5l-1.1-4.6h0.5l0.9 3.7 1-3.7h0.4l1 3.7 0.9-3.7h0.5c0 0-1.2 4.6-1.2 4.6z"/>
			<path id="Trazado_365" fill-rule="evenodd" class="s1" d="m74.4 39.9q-0.3 0.2-0.6 0.3-0.3 0.1-0.6 0.1-0.3 0-0.6-0.1-0.3-0.1-0.5-0.3c-0.5-0.5-0.5-0.9-0.5-1.9 0-0.9 0-1.4 0.5-1.8q0.2-0.2 0.5-0.4 0.3-0.1 0.6-0.1 0.3 0 0.6 0.1 0.3 0.2 0.6 0.4c0.4 0.4 0.4 0.9 0.4 1.8 0 1 0 1.4-0.4 1.9zm-0.4-3.4q-0.2-0.2-0.4-0.3-0.2-0.1-0.4-0.1-0.2 0-0.4 0.1-0.2 0.1-0.4 0.3c-0.3 0.3-0.3 0.6-0.3 1.5 0 1 0 1.3 0.3 1.6q0.2 0.1 0.4 0.2 0.2 0.1 0.4 0.1 0.2 0 0.4-0.1 0.2-0.1 0.4-0.2c0.3-0.3 0.3-0.6 0.3-1.6 0-0.9 0-1.2-0.3-1.5z"/>
			<path id="Trazado_366" fill-rule="evenodd" class="s1" d="m78.6 40.3l-1.1-2h-1.1v2h-0.5v-4.6h1.8q0.3 0 0.5 0.1 0.3 0.1 0.4 0.3 0.2 0.2 0.3 0.4 0.1 0.2 0.1 0.5 0 0.2 0 0.4-0.1 0.2-0.2 0.4-0.2 0.2-0.4 0.3-0.1 0.1-0.4 0.1l1.1 2.1zm-0.9-4.1h-1.2v1.6h1.2q0.4 0.1 0.6-0.2 0.3-0.2 0.3-0.6 0-0.4-0.3-0.6-0.2-0.2-0.6-0.2z"/>
			<path id="Trazado_367" class="s1" d="m83 40.3l-1.4-2.4-1 1.1v1.3h-0.5v-4.6h0.5v2.7l2.1-2.7h0.6l-1.4 1.8 1.6 2.8z"/>
		</g>
		<g id="Grupo_975">
			<path id="Trazado_368" class="s1" d="m9.7 12.6h4.9v17.7h-4.9z"/>
			<path id="Trazado_369" class="s1" d="m57.2 12.6h4.9v2.7q0.4-0.6 0.9-1.1 0.6-0.5 1.2-0.9 0.7-0.3 1.4-0.5 0.7-0.2 1.5-0.2c3.6 0 5.8 2.4 5.8 6.3v11.4h-4.9v-9.9c0-2.2-1.1-3.4-2.9-3.4-1.9 0-3 1.2-3 3.4v9.9h-4.9z"/>
			<path id="Trazado_370" class="s1" d="m99.4 16.8v-4.2h-4.4v-4.1h-4.8v4.1h-3.8v4.2h3.8v8.5c0 4 2 5.2 5 5.2q0.5 0 1-0.1 0.5 0 1-0.1 0.5-0.2 0.9-0.4 0.5-0.2 0.9-0.4v-3.9q-0.2 0.1-0.5 0.2-0.3 0.1-0.6 0.2-0.3 0.1-0.6 0.1-0.4 0.1-0.7 0.1c-1.1 0-1.6-0.6-1.6-1.7v-7.7z"/>
			<path id="Trazado_371" class="s1" d="m86.6 16.8v-4.2h-4.1v-4.1h-4.9v4.1h-2.9v4.2h2.9v8.5c0 4 2.1 5.2 5.1 5.2q0.5 0 1-0.1 0.5 0 1-0.1 0.5-0.2 0.9-0.4 0.5-0.2 0.9-0.4v-3.9q-0.3 0.1-0.5 0.2-0.3 0.1-0.6 0.2-0.3 0.1-0.7 0.1-0.3 0.1-0.6 0.1c-1.1 0-1.6-0.6-1.6-1.7v-7.7z"/>
			<path id="Trazado_372" class="s1" d="m112.9 12.6v13.6q-0.3 0.1-0.7 0.1-0.4 0.1-0.7 0.1-0.4 0-0.7 0-0.4 0.1-0.8 0.1c-2.5 0-3.6-1-3.6-3.3v-10.6h-4.5v10.3c0 5 2.9 7.8 7.8 7.8q0.4 0 0.8 0 0.4 0 0.8-0.1 0.4 0 0.8-0.1 0.4 0 0.8-0.1v0.8c0 2.3-1.1 3.5-3.5 3.5q-0.3 0-0.5 0-0.2 0-0.5-0.1-0.2 0-0.4 0-0.3 0-0.5-0.1-0.5 0-0.9-0.1-0.4-0.1-0.7-0.2-0.3-0.1-0.7-0.2-0.3-0.1-0.6-0.3-0.3-0.1-0.6-0.3h-0.1q-0.1 0-0.1-0.1-0.1 0-0.2 0 0 0-0.1 0-0.1 0-0.1 0-0.4 0-0.6 0.1-0.3 0.1-0.6 0.3-0.2 0.2-0.4 0.5-0.2 0.2-0.3 0.5-0.2 0.4-0.1 0.8 0 0.4 0.1 0.8 0.2 0.4 0.5 0.7 0.3 0.3 0.7 0.4l0.2 0.1q0.3 0.2 0.7 0.3 0.4 0.2 0.7 0.3 0.4 0.1 0.8 0.2 0.3 0.2 0.7 0.3 0.5 0.1 0.9 0.1 0.4 0.1 0.9 0.2 0.4 0 0.9 0 0.4 0.1 0.9 0.1 0.7 0 1.4-0.1 0.7-0.1 1.3-0.3 0.7-0.2 1.3-0.5 0.7-0.3 1.2-0.7 0.7-0.5 1.3-1.2 0.5-0.7 0.9-1.6 0.4-0.8 0.5-1.6 0.2-0.9 0.1-1.8v-18.6z"/>
			<g id="Grupo_974">
				<path id="Trazado_373" fill-rule="evenodd" class="s1" d="m35.7 6.1v24.2h-5v-2.6q-0.4 0.7-1 1.2-0.6 0.6-1.4 0.9-0.7 0.4-1.5 0.6-0.8 0.1-1.6 0.1c-5 0-8.3-3.6-8.3-9 0-5.4 3.3-9 8.2-9q0.8 0 1.6 0.2 0.8 0.1 1.6 0.5 0.7 0.4 1.3 0.9 0.7 0.5 1.1 1.2v-9.2zm-5 15.5c0-2.9-1.8-4.9-4.3-4.9-2.6 0-4.4 2-4.5 4.9 0.1 2.9 1.8 4.9 4.5 4.9 2.5 0 4.3-2 4.3-4.9z"/>
			</g>
			<path id="Trazado_374" fill-rule="evenodd" class="s1" d="m55.4 23.1h-12.6q0.2 0.7 0.6 1.4 0.4 0.7 1 1.1 0.7 0.5 1.4 0.8 0.8 0.2 1.5 0.2 0.7 0 1.3-0.1 0.6-0.2 1.2-0.4 0.5-0.2 1-0.6 0.6-0.3 1-0.8l2.6 2.7q-0.7 0.8-1.5 1.4-0.9 0.6-1.9 1-1 0.4-2 0.6-1 0.1-2.1 0.1c-5.6 0-9.2-3.6-9.2-8.9 0-5.4 3.7-9 9.1-9 6.2 0 9 4 8.6 10.5zm-4.7-3q0-0.8-0.2-1.5-0.3-0.7-0.9-1.3-0.5-0.5-1.3-0.8-0.7-0.3-1.5-0.2c-2.2 0-3.7 1.5-4.1 3.8z"/>
		</g>
	</g>
</svg>